<svg id="圖層_1" data-name="圖層 1" xmlns="http://www.w3.org/2000/svg" viewBox="0 0 290.42 289.98"><defs><style>.cls-1{fill:none;stroke:#9caba3;stroke-miterlimit:10;stroke-width:9px;}.cls-2{fill:#9caba3;}</style></defs><circle class="cls-1" cx="145.18" cy="145.02" r="139.85"/><path class="cls-2" d="M213.76,178.31q0,12.49,0,25a17.34,17.34,0,0,1-1.41,6.7,19.27,19.27,0,0,1-4.75,6.9A18.2,18.2,0,0,1,197,222c-2.36.25-4.75.34-7.12.37q-9.4.15-18.8.19-22.26.12-44.54.18c-4.57,0-9.13-.1-13.7-.17-3.24-.05-6.47-.1-9.7-.19a21.55,21.55,0,0,1-12.28-3.61,19.83,19.83,0,0,1-8.23-12.88,14.59,14.59,0,0,1-.2-2.88q0-24.5,0-49a18.84,18.84,0,0,1,4-11.74,19.67,19.67,0,0,1,12.7-7.62,17.21,17.21,0,0,1,2.69-.19c5-.08,10-.13,15-.19,3.9-.06,7.8-.15,11.7-.18,9.87-.08,19.75-.16,29.62-.17,6.66,0,13.32.1,20,.17,3.63,0,7.26.11,10.88.18,2.18,0,4.36,0,6.52.2a19.86,19.86,0,0,1,17.78,15.08,15.7,15.7,0,0,1,.47,3.54C213.78,161.46,213.76,169.89,213.76,178.31Zm-55.41-10.67V148.4h-7.49v58.14h7.54v-3.28c.25.12.35.14.4.2a8.92,8.92,0,0,0,8.43,3.66,5.76,5.76,0,0,0,4.11-2.28,10.21,10.21,0,0,0,1.89-6.33c.07-8,0-16,0-24a19.85,19.85,0,0,0-.73-6,7.09,7.09,0,0,0-3.63-4.68,7.42,7.42,0,0,0-8.39,1.47A29.25,29.25,0,0,0,158.35,167.64Zm44.2,18.4c0-3.61,0-7.06,0-10.51a29,29,0,0,0-.38-4.66,9.24,9.24,0,0,0-4.24-6.59,12.28,12.28,0,0,0-8.09-1.62,11.07,11.07,0,0,0-8.29,5.22,12.68,12.68,0,0,0-2,7q-.1,8.53,0,17.09a44,44,0,0,0,.56,7,10.1,10.1,0,0,0,5.63,7.77,12.42,12.42,0,0,0,7.27,1c4.25-.57,7.28-2.62,8.6-6.79a21.14,21.14,0,0,0,.73-4.13c.17-1.69.17-3.4.25-5.11h-7.79c0,1.84,0,3.59,0,5.35a3.52,3.52,0,0,1-1.22,2.7,3.71,3.71,0,0,1-6.16-3V186ZM135,163.63V195.7c0,.32,0,.73-.13,1a7.73,7.73,0,0,1-3.89,3,2.11,2.11,0,0,1-3-2.17q-.09-12.48-.18-25c0-2.64,0-5.27,0-7.91v-1h-7.5c0,.21,0,.39,0,.56,0,12.15,0,24.3,0,36.45a9.94,9.94,0,0,0,1.08,4.19c1.09,2.18,3.38,2.88,6,2.21a11.46,11.46,0,0,0,5.15-3c.75-.72,1.43-1.52,2.15-2.28l.28.16v4.56h7.46V163.63ZM110.7,206.55V156.37h9.18v-8H93v8.07h9.22v50.1Z"/><path class="cls-2" d="M155.35,100.6c0,3.94,0,7.88,0,11.82a10.75,10.75,0,0,1-5.47,9.51,11.25,11.25,0,0,1-11.23.57,10.77,10.77,0,0,1-6.48-9c-.21-2.1-.19-4.22-.2-6.33,0-5.7,0-11.39,0-17.09A12,12,0,0,1,136,80.44,11.14,11.14,0,0,1,143,77.65a11.68,11.68,0,0,1,8.12,2.53,11.27,11.27,0,0,1,4.09,6.55,8,8,0,0,1,.18,1.69C155.36,92.48,155.35,96.54,155.35,100.6Zm-14.74,0c0,3.94,0,7.88,0,11.82a3.15,3.15,0,0,0,3.12,3.18c1.5.17,3.15-1.57,3.15-3.18q0-11.81,0-23.63a3.23,3.23,0,0,0-3.11-3.12,3.07,3.07,0,0,0-3.15,3.12C140.62,92.76,140.61,96.69,140.61,100.63Z"/><path class="cls-2" d="M176.72,78.79h8.21v43.64h-8.16v-4.24c-1,.83-1.76,1.53-2.55,2.25a9.57,9.57,0,0,1-6.45,2.75c-2.72,0-4.54-.87-5.4-4.1a13.43,13.43,0,0,1-.38-3.28q0-17.86,0-35.73V78.83h8.29v33.43a4.43,4.43,0,0,0,0,.73c.25,1.32,1.08,2.62,2.86,1.61a15.4,15.4,0,0,0,3-2.36,2.45,2.45,0,0,0,.51-1.65q0-15.27,0-30.54Z"/><path class="cls-2" d="M118.1,85.41q2.61-11,5.21-22.07h9.5c-.22.82-.4,1.59-.63,2.34-1.43,4.76-2.89,9.51-4.32,14.27q-2.69,8.88-5.33,17.78a3.51,3.51,0,0,0-.11,1.07q0,11.24,0,22.46v1.16h-8.83v-1.06c0-7.18,0-14.36,0-21.55a14.09,14.09,0,0,0-.69-4.32q-2.85-9.26-5.64-18.53c-1.36-4.5-2.68-9-4-13.59h9.52c1.72,7.28,3.46,14.65,5.21,22Z"/><path class="cls-2" d="M165.36,185.52c0,4,0,7.93,0,11.9a4.69,4.69,0,0,1-.31,1.65c-.64,1.67-3.09,2.27-4.82,1.18a3.54,3.54,0,0,1-1.92-3.34c.11-8.06.05-16.12.05-24.17a3.15,3.15,0,0,1,2.88-3.07c3-.29,4,1.32,4.1,3.86C165.47,177.52,165.36,181.52,165.36,185.52Z"/><path class="cls-2" d="M187.63,179.54c0-2.45-.13-4.86.05-7.24.12-1.59,1.72-2.62,3.46-2.62s3.35,1,3.47,2.61c.18,2.39,0,4.8,0,7.25Z"/></svg>