<svg id="圖層_1" data-name="圖層 1" xmlns="http://www.w3.org/2000/svg" viewBox="0 0 290.64 290.2"><defs><style>.cls-1{fill:none;stroke:#9caba3;stroke-miterlimit:10;stroke-width:9px;}.cls-2{fill:#9caba3;}</style></defs><circle class="cls-1" cx="145.14" cy="145.02" r="139.85"/><path class="cls-2" d="M174,83.12,157,83.1c-19.17,0-31.56,12.71-31.56,32.37V130.4H108.24a2.68,2.68,0,0,0-2.68,2.68v21.63a2.68,2.68,0,0,0,2.68,2.67h17.15V212a2.69,2.69,0,0,0,2.69,2.67h22.37a2.69,2.69,0,0,0,2.69-2.67V157.38h20.05a2.68,2.68,0,0,0,2.68-2.67V133.08a2.72,2.72,0,0,0-.79-1.9,2.67,2.67,0,0,0-1.89-.78H153.14V117.74c0-6.08,1.45-9.17,9.36-9.17H174a2.68,2.68,0,0,0,2.68-2.68V85.81A2.7,2.7,0,0,0,174,83.12Zm0,0"/></svg>