<svg id="圖層_1" data-name="圖層 1" xmlns="http://www.w3.org/2000/svg" viewBox="0 0 290.4 290.33"><defs><style>.cls-1{fill:none;stroke:#9caba3;stroke-miterlimit:10;stroke-width:9px;}.cls-2{fill:#9caba3;}</style></defs><circle class="cls-1" cx="145.24" cy="145.11" r="139.85"/><path class="cls-2" d="M79.46,158.54V140.11a3.37,3.37,0,0,0,.25-.78c.1-5.22.23-10.43.25-15.64A52.45,52.45,0,0,1,81.29,112c2.51-10.94,8.63-19,18.85-23.91a42.62,42.62,0,0,1,16.62-3.81c2.7-.12,5.41-.17,8.11-.28.18,0,.35-.16.53-.25h39.45a6.8,6.8,0,0,0,1.3.26,80.4,80.4,0,0,1,13.94,1A36,36,0,0,1,197,92.43a33,33,0,0,1,10.43,14.69,52.84,52.84,0,0,1,2.84,17.93,10.55,10.55,0,0,0,.25,1.56V172a6.3,6.3,0,0,0-.25,1c-.19,2.77-.29,5.56-.54,8.33a38.68,38.68,0,0,1-4.55,15.07,32.11,32.11,0,0,1-10.12,11.17c-6.6,4.62-14.08,6.33-22,6.68-2.84.13-5.68.18-8.51.28-.18,0-.35.17-.53.25H126.18c-.18-.08-.35-.24-.53-.25-2.83-.1-5.67-.14-8.5-.28a54.33,54.33,0,0,1-6.25-.55,39,39,0,0,1-14.46-5.21,33.44,33.44,0,0,1-11.51-12.12c-3.19-5.69-4.4-12-4.92-18.38-.25-3.08-.24-6.19-.28-9.29s0-6.05,0-9.07A7,7,0,0,0,79.46,158.54Zm79.3,44.13v-.26c3.88,0,7.76.13,11.63,0a59.81,59.81,0,0,0,9.25-1.05,21.48,21.48,0,0,0,14.43-9.82c2.58-4.05,3.53-8.6,4-13.26a110,110,0,0,0,.53-11.19c-.11-14.8.51-29.61-.51-44.41a51.59,51.59,0,0,0-1.07-8.33c-2-8.06-6.76-13.59-14.75-16.3-4.6-1.56-9.37-1.71-14.11-2s-9.39-.29-14.09-.28c-6.64,0-13.29.15-19.93.24-4.7.07-9.4.22-14.1.25a35.68,35.68,0,0,0-14.07,2.59c-6.46,2.76-10.45,7.64-12.47,14.27-1.6,5.22-1.75,10.64-1.74,16,0,16.06-.58,32.13.42,48.18a34.24,34.24,0,0,0,2.09,10.42,21.2,21.2,0,0,0,13,12.7c5,1.87,10.16,2.08,15.33,2.26,7.68.27,15.36.24,23.05.29,1.8,0,3.6-.2,5.4-.23C153.57,202.63,156.17,202.67,158.76,202.67Z"/><path class="cls-2" d="M145.12,115.71c18.5-.39,34,15.06,33.73,34.15a33.74,33.74,0,1,1-67.45-2C112,131,126.05,115.41,145.12,115.71Zm21.55,33.58A21.63,21.63,0,1,0,144.73,171,21.55,21.55,0,0,0,166.67,149.29Z"/><path class="cls-2" d="M172.12,114.44a7.67,7.67,0,0,1,7.87-8,8,8,0,0,1,0,16A7.66,7.66,0,0,1,172.12,114.44Z"/></svg>