<svg id="圖層_1" data-name="圖層 1" xmlns="http://www.w3.org/2000/svg" viewBox="0 0 290.86 289.98"><defs><style>.cls-1{fill:none;stroke:#9caba3;stroke-miterlimit:10;stroke-width:9px;}.cls-2{fill:#9caba3;}</style></defs><circle class="cls-1" cx="145.29" cy="145.02" r="139.85"/><path class="cls-2" d="M73.11,163.3H86c3.7,0,7.41,0,11.12,0,1.75,0,2.4.69,2.4,2.4,0,2.8,0,5.6,0,8.39,0,1.75-.67,2.44-2.4,2.44q-17.4,0-34.81,0c-2,0-2.29-.65-2.74-2.76a6.16,6.16,0,0,1,0-1.29V120.83c0-3,1-4,4-4,2.15,0,4.3,0,6.45,0,2.32,0,3.13.87,3.13,3.2V163.3Z"/><path class="cls-2" d="M142.43,141.6v32.07c0,2.28-.56,2.86-2.79,2.86h-7.89c-1.8,0-2.64-.75-2.85-2.51a11.09,11.09,0,0,1,0-1.29q0-25.74,0-51.47c0-3.81,1.25-4.58,4.5-4.47,2,.07,4,0,6,0a3.33,3.33,0,0,1,2.91,1.48c5.74,7.83,11.6,15.57,17.39,23.35,2.54,3.42,5,6.89,7.86,10.32,0-.53.07-1.05.07-1.58v-30c0-2.53,1-3.57,3.58-3.57,2.21,0,4.41,0,6.61,0s3.35,1.1,3.35,3.41q0,26.61,0,53.24c0,2.23-.85,3.07-3,3.07-2.52,0-5.05-.08-7.57,0a3.05,3.05,0,0,1-2.82-1.42q-11.07-14.94-22.12-29.87c-.94-1.27-1.82-2.57-2.73-3.85Z"/><path class="cls-2" d="M203.44,130.37v9.68h1.77c7.26,0,14.51.09,21.76-.05a3,3,0,0,1,3.17,3.27c0,2.36,0,4.73,0,7.1a3,3,0,0,1-3.26,3.24H203.45v9.69h1.69c7.37,0,14.73.07,22.09-.05,2,0,2.78,1.07,2.87,2.79a76.85,76.85,0,0,1,0,7.74c-.08,1.73-.86,2.82-2.86,2.8-11.39-.09-22.78,0-34.18-.05-2.35,0-2.91-.55-2.91-2.9V120c0-2.41.79-3.22,3.23-3.22h18.86c4.46,0,8.92.08,13.38,0,3.07-.08,4.82.81,4.54,4.45-.15,2,0,4,0,6,0,2.34-.85,3.16-3.17,3.16Z"/><path class="cls-2" d="M106.64,146.58c0-8.87.08-17.74,0-26.61a3,3,0,0,1,3.26-3.17c2.3,0,4.61,0,6.92,0s3.41,1.12,3.41,3.42q0,26.61,0,53.23c0,2.22-.85,3.07-3,3.07h-7.57c-2.08,0-2.93-.86-2.93-3q0-9.27,0-18.55Z"/></svg>