<svg width="22" height="22" viewBox="0 0 22 22" fill="none" xmlns="http://www.w3.org/2000/svg">
<path d="M0 1H2.74942L3.23818 4.32133" stroke="white" stroke-width="2" stroke-miterlimit="10"/>
<path d="M3.23828 4.32129L4.71244 14.346H18.5256L20.0001 4.32129H3.23828Z" stroke="white" stroke-width="2" stroke-miterlimit="10"/>
<path d="M7.29163 19.2606C7.29163 20.2377 6.51786 20.9997 5.60016 20.9997C4.68246 20.9997 3.90869 20.2377 3.90869 19.2606C3.90869 18.2835 4.68246 17.5215 5.60016 17.5215C6.51786 17.5215 7.29163 18.2835 7.29163 19.2606Z" stroke="white" stroke-width="2"/>
<path d="M18.9547 19.2606C18.9547 20.2377 18.1809 20.9997 17.2632 20.9997C16.3455 20.9997 15.5718 20.2377 15.5718 19.2606C15.5718 18.2835 16.3455 17.5215 17.2632 17.5215C18.1809 17.5215 18.9547 18.2835 18.9547 19.2606Z" stroke="white" stroke-width="2"/>
</svg>
